HIERARCHY
ROOT ui
{
	 OFFSET 0 0 0
	 CHANNELS 3 XPosition YPosition Z Position
	 EndSite
	 {
	 OFFSET 0 -1 0
	 }
}
ROOT li
{
	 OFFSET 0 0 0
	 CHANNELS 3 XPosition YPosition Z Position
	 EndSite
	 {
	 OFFSET 0 -1 0
	 }
}
ROOT ul
{
	 OFFSET 0 0 0
	 CHANNELS 3 XPosition YPosition Z Position
	 EndSite
	 {
	 OFFSET 0 -1 0
	 }
}
ROOT ll
{
	 OFFSET 0 0 0
	 CHANNELS 3 XPosition YPosition Z Position
	 EndSite
	 {
	 OFFSET 0 -1 0
	 }
}
ROOT tt
{
	 OFFSET 0 0 0
	 CHANNELS 3 XPosition YPosition Z Position
	 EndSite
	 {
	 OFFSET 0 -1 0
	 }
}
ROOT tb
{
	 OFFSET 0 0 0
	 CHANNELS 3 XPosition YPosition Z Position
	 EndSite
	 {
	 OFFSET 0 -1 0
	 }
}
ROOT td
{
	 OFFSET 0 0 0
	 CHANNELS 3 XPosition YPosition Z Position
	 EndSite
	 {
	 OFFSET 0 -1 0
	 }
}
ROOT v
{
	 OFFSET 0 0 0
	 CHANNELS 3 XPosition YPosition Z Position
	 EndSite
	 {
	 OFFSET 0 -1 0
	 }
}
ROOT bn
{
	 OFFSET 0 0 0
	 CHANNELS 3 XPosition YPosition Z Position
	 EndSite
	 {
	 OFFSET 0 -1 0
	 }
}
MOTION
Frames: 21
Frame Time: 0.002
0.0017453709840774536	-0.0018434150218963623	0		0.46132452392578127	-2.388751953125	0		-1.0481507568359374	0.10373147583007812	0		-0.7321570434570313	-2.486007568359375	0		1.626132080078125	-0.5824231567382813	0		3.1990849609375	-0.022562402725219727	0		4.71055078125	0.15958245849609376	0		5.5826474609375	0.10270993041992188	0		-0.12281612396240234	5.99345849609375	0		
-0.023925893783569335	-6.505849957466125E-4	0		0.41937057495117186	-2.392023681640625	0		-1.05377490234375	0.10811936187744141	0		-0.68729736328125	-2.5006103515625	0		1.64560595703125	-0.5836630859375	0		3.205236328125	-0.028971050262451174	0		4.7097509765625	0.1588487091064453	0		5.58170703125	0.129615234375	0		-0.12262918853759766	5.99099072265625	0		
0.005441965103149414	0.001319633960723877	0		0.4484764709472656	-2.392882080078125	0		-1.0325721435546875	0.10391914367675781	0		-0.7498721923828126	-2.48784228515625	0		1.610228271484375	-0.577718994140625	0		3.217617431640625	-0.02554669189453125	0		4.71415771484375	0.1669513397216797	0		5.58910400390625	0.1317504119873047	0		-0.24158686828613282	5.9801064453125	0		
-0.013089085578918457	0.008335145950317382	0		0.4557134094238281	-2.3862587890625	0		-1.0282059326171875	0.10710709381103516	0		-0.6768553466796875	-2.494017822265625	0		1.65584814453125	-0.5725558471679687	0		3.204157958984375	-0.014600902557373048	0		4.71543994140625	0.1690614471435547	0		5.58937353515625	0.13414527893066405	0		-0.12693110656738282	5.9911474609375	0		
0.03511030578613281	0.0019320720434188843	0		0.4677420959472656	-2.387737060546875	0		-1.043790283203125	0.11274085998535156	0		-0.7584979858398437	-2.4808623046875	0		1.6312001953125	-0.5789034423828125	0		3.200354736328125	-0.019915998458862303	0		4.711580078125	0.1642112121582031	0		5.5837265625	0.11247893524169922	0		-0.2608908996582031	5.97151416015625	0		
-0.020434867858886718	0.008731528282165528	0		0.4418201599121094	-2.38441552734375	0		-1.0357979736328125	0.09789917755126953	0		-0.7024939575195313	-2.48360302734375	0		1.647599365234375	-0.5831392211914063	0		3.206531494140625	-0.026488407135009766	0		4.7118505859375	0.1651999053955078	0		5.577578125	0.1149026870727539	0		-0.12987240600585936	5.99030859375	0		
0.003624747037887573	-0.004125661849975586	0		0.45054901123046875	-2.3958193359375	0		-1.0395714111328125	0.09434194183349609	0		-0.7497265014648438	-2.4941640625	0		1.6290948486328125	-0.5816653442382812	0		3.1978955078125	-0.023799983978271485	0		4.71107861328125	0.16413059997558593	0		5.580794921875	0.12879974365234376	0		-0.2483753204345703	5.9813203125	0		
-0.01492352294921875	0.0029172940254211426	0		0.4275546875	-2.3905634765625	0		-1.031149658203125	0.10057762145996094	0		-0.7118308715820313	-2.496443603515625	0		1.63260400390625	-0.5786649780273437	0		3.205427734375	-0.012493217468261719	0		4.710626953125	0.17897474670410157	0		5.583287109375	0.14256387329101564	0		-0.24955506896972657	5.980916015625	0		
0.009523701667785645	0.010109160423278809	0		0.4465434875488281	-2.383151123046875	0		-1.1058450927734376	0.10252986145019531	0		-0.7536652221679687	-2.481064697265625	0		1.61305078125	-0.5772160034179687	0		3.2074609375	-0.025128162384033204	0		4.71263720703125	0.167679443359375	0		5.583525390625	0.1441516876220703	0		-0.2648515625	5.96882177734375	0		
0.014697959899902344	0.004714871883392334	0		0.45508416748046876	-2.394514892578125	0		-1.0306239013671874	0.09951641082763672	0		-0.6860764770507812	-2.491845947265625	0		1.6523973388671875	-0.5799609985351563	0		3.206001708984375	-0.011737011909484863	0		4.7028818359375	0.16853805541992187	0		5.5879287109375	0.13325166320800783	0		-0.13435633850097656	5.988861328125	0		
0.004759634017944336	-0.005357271194458008	0		0.43711367797851564	-2.37733544921875	0		-1.1252869873046876	0.10492694854736329	0		-0.7331813354492187	-2.482300048828125	0		1.6279222412109375	-0.5714447631835937	0		3.1990458984375	-0.022290542602539064	0		4.71310693359375	0.16891836547851563	0		5.58171923828125	0.13480479431152342	0		-0.26759033203125	5.96916796875	0		
-0.02590281867980957	-1.4299999456852674E-6	0		0.4455092468261719	-2.388669677734375	0		-1.03830224609375	0.09179981994628907	0		-0.6867763061523438	-2.4945634765625	0		1.6310504150390626	-0.58149169921875	0		3.17826708984375	-0.022619760513305665	0		4.70815771484375	0.16151918029785156	0		5.58190673828125	0.13588546752929687	0		-0.26732855224609375	5.96785595703125	0		
-0.020777812957763674	-0.004326961994171143	0		0.4309894714355469	-2.391541748046875	0		-1.104943603515625	0.100728271484375	0		-0.743234619140625	-2.4947783203125	0		1.6144156494140625	-0.5771614990234375	0		3.220504638671875	-0.02121890640258789	0		4.71658935546875	0.17479031372070314	0		5.58430712890625	0.14882122802734374	0		-0.2527827606201172	5.97630029296875	0		
0.015561586380004882	0.003773655891418457	0		0.46146298217773435	-2.39126953125	0		-1.02981689453125	0.09794828033447266	0		-0.6667764892578125	-2.4965341796875	0		1.6397874755859374	-0.5706516723632813	0		3.20687451171875	-0.010764328002929688	0		4.71775927734375	0.17613735961914062	0		5.5886279296875	0.13730819702148436	0		-0.1361009826660156	5.986810546875	0		
-0.015176774024963379	0.01019290542602539	0		0.4411627807617188	-2.374997802734375	0		-1.029685791015625	0.09766574859619141	0		-0.7162138671875	-2.48782177734375	0		1.6538126220703124	-0.57992431640625	0		3.199807373046875	-0.021471473693847658	0		4.71376806640625	0.1705283508300781	0		5.58232421875	0.13828794860839844	0		-0.13756085205078125	5.9876396484375	0		
0.008701167106628417	-0.0024149830341339113	0		0.47317431640625	-2.391717041015625	0		-1.0464454345703125	0.10474716186523438	0		-0.6850203247070312	-2.495626220703125	0		1.629133544921875	-0.5714525146484375	0		3.208881591796875	-0.023509881973266603	0		4.713865234375	0.1707955780029297	0		5.58588671875	0.12659571075439452	0		-0.13797926330566407	5.9874765625	0		
-0.01620849609375	-0.0020652899742126464	0		0.4205433654785156	-2.38580126953125	0		-1.0335791015625	0.09329741668701172	0		-0.6847482299804688	-2.4958037109375	0		1.651048828125	-0.5828734741210938	0		3.203103271484375	-0.01628358268737793	0		4.712900390625	0.1690408935546875	0		5.5847216796875	0.15136849975585936	0		-0.2697547607421875	5.9668349609375	0		
0.02586481475830078	-0.001965909004211426	0		0.44874713134765626	-2.386409423828125	0		-1.029447998046875	0.09705379486083984	0		-0.7415413208007813	-2.495868896484375	0		1.6152476806640625	-0.5771936645507812	0		3.2090322265625	-0.023302043914794922	0		4.72294970703125	0.16903840637207032	0		5.5919052734375	0.15144699096679687	0		-0.25487384033203125	5.97642919921875	0		
-0.009974761962890625	0.004633347988128662	0		0.43483236694335936	-2.390203369140625	0		-1.029412353515625	0.09692144775390625	0		-0.6674285888671875	-2.499385498046875	0		1.6573470458984374	-0.57598974609375	0		3.212167724609375	-0.01828264045715332	0		4.7081357421875	0.1774723205566406	0		5.58480859375	0.15210296630859374	0		-0.1379226379394531	5.98612109375	0		
0.011966281890869141	1.580280065536499E-4	0		0.4490169677734375	-2.38651220703125	0		-1.0293953857421876	0.09682164001464844	0		-0.7521090087890625	-2.48786962890625	0		1.6353367919921875	-0.5785715942382812	0		3.21705615234375	-0.02531398582458496	0		4.71403515625	0.17147891235351562	0		5.58901318359375	0.14005613708496092	0		-0.13813002014160156	5.98605517578125	0		
-0.017932926177978516	0.00568156099319458	0		0.4402356872558594	-2.378372802734375	0		-1.0393572998046876	0.09894050598144531	0		-0.6841837768554687	-2.496211181640625	0		1.648464599609375	-0.5728140258789063	0		3.203230224609375	-0.016005090713500977	0		4.70403369140625	0.1717549133300781	0		5.58483251953125	0.15254800415039063	0		-0.13927313232421876	5.98702880859375	0		
